<svg version="1.1" id="Layer_1" xmlns="http://www.w3.org/2000/svg" xmlns:xlink="http://www.w3.org/1999/xlink" x="0px" y="0px"
	 width="100%" viewBox="0 0 400 200" enable-background="new 0 0 400 200" xml:space="preserve">
<path fill="#FFFFFF" opacity="1.000000" stroke="none" 
	d="
M399.408142,201.000000 
	C266.252014,201.000000 133.625992,201.000000 1.045894,201.000000 
	C1.045894,134.265396 1.045894,67.632675 1.045894,1.035797 
	C134.394531,1.035797 267.697266,1.035797 401.000000,1.035797 
	C401.000000,66.234970 401.007019,131.398346 400.955658,196.561691 
	C400.954498,198.041397 400.292175,199.520584 399.408142,201.000000 
M127.085068,108.462456 
	C127.039482,108.628967 126.993904,108.795486 126.172630,109.158287 
	C125.690781,111.632729 125.208931,114.107170 124.625725,117.102127 
	C128.448914,116.610794 131.137482,116.265282 134.548843,116.019150 
	C136.782486,116.616272 139.382080,120.603035 141.637894,114.984390 
	C141.976990,113.623260 142.316071,112.262131 142.753967,110.282898 
	C142.444229,109.534721 142.134506,108.786537 141.986176,107.489182 
	C141.623718,107.055923 141.261276,106.622665 140.996887,105.702759 
	C140.996887,105.702759 141.033295,105.207680 141.689011,104.873039 
	C141.820908,102.371712 141.952820,99.870384 142.080215,97.454857 
	C139.839890,97.454857 138.399567,97.454857 136.213242,97.093262 
	C134.524460,97.386383 132.835678,97.679504 130.912216,98.532188 
	C129.809265,98.753204 128.706329,98.974220 129.012604,98.912849 
	C129.077927,99.055511 129.518387,100.017502 129.290375,101.078194 
	C128.476761,101.436417 127.663155,101.794632 127.234009,101.983582 
	C127.158836,102.676933 127.039902,103.365196 127.019913,104.056305 
	C126.991600,105.035194 127.036263,106.016182 126.836304,107.478539 
	C126.918518,107.633873 127.000732,107.789207 127.085068,108.462456 
M54.883724,112.655739 
	C54.755814,113.082565 54.627899,113.509392 53.747498,113.967690 
	C53.164181,114.894905 52.580864,115.822121 51.997543,116.749336 
	C53.315876,117.098946 54.634209,117.448555 56.825287,117.961891 
	C58.293449,117.868813 59.761608,117.775734 61.670937,117.702370 
	C61.670937,117.702370 62.108971,117.644989 62.108971,117.644989 
	C62.108971,117.644989 62.544975,117.716179 63.310009,117.868095 
	C63.568386,117.897041 63.826759,117.925987 64.989456,117.961845 
	C67.749611,117.922844 70.517624,117.985451 73.264404,117.773323 
	C73.950493,117.720329 74.568199,116.782104 75.217331,116.250732 
	C74.525917,115.477432 73.834503,114.704124 73.006531,113.105827 
	C72.896194,111.720375 72.785866,110.334915 72.879547,108.105034 
	C73.446281,105.202797 74.013023,102.300552 74.657570,98.999840 
	C74.790627,98.999840 73.853966,98.999840 72.790756,98.162247 
	C71.855583,98.161797 70.920418,98.161346 69.203140,97.870667 
	C67.552757,97.974228 65.902382,98.077789 63.451847,97.857635 
	C60.722164,97.584099 57.984821,97.059563 55.266010,97.142487 
	C53.898682,97.184196 52.565010,98.329506 51.216118,98.975746 
	C52.378902,100.008018 53.541691,101.040298 54.900520,102.526733 
	C54.900520,102.526733 55.068214,102.992104 54.876358,103.659088 
	C54.938774,104.111725 55.001186,104.564354 54.934406,105.678558 
	C54.989662,106.121384 55.044918,106.564201 54.915855,107.739922 
	C54.995132,108.484337 55.074413,109.228760 54.934174,110.639572 
	C54.987038,111.099220 55.039902,111.558876 54.883724,112.655739 
M120.690018,104.926216 
	C120.839844,104.265549 120.989662,103.604881 121.299248,102.150497 
	C120.526138,101.133652 119.753036,100.116814 118.609070,98.611275 
	C117.965813,98.712219 117.322563,98.813164 116.027252,98.715469 
	C112.594711,94.797142 107.388359,95.905510 104.817352,101.847031 
	C105.225868,103.877083 105.634377,105.907135 105.918198,108.320335 
	C105.918198,108.320335 105.874985,108.720940 105.157951,109.030312 
	C104.993698,110.202286 104.829445,111.374252 104.473846,113.351868 
	C104.560432,113.893112 104.647018,114.434349 104.404861,115.360863 
	C105.088654,115.686195 105.746155,116.179634 106.463280,116.291756 
	C107.253418,116.415283 108.098328,116.188545 109.222229,116.811897 
	C116.501411,118.756126 118.129692,118.269394 122.038406,112.492706 
	C122.014915,111.334869 121.991425,110.177040 122.005341,108.554802 
	C121.925972,108.199821 121.704765,108.011246 121.119453,107.426575 
	C120.736572,106.971085 120.353691,106.515594 120.012787,105.630363 
	C120.012787,105.630363 120.029175,105.199684 120.690018,104.926216 
M161.028702,106.512680 
	C161.028702,106.512680 161.166916,106.034073 161.871521,106.022606 
	C163.455826,106.022606 165.040146,106.022606 166.781647,106.022606 
	C166.610947,102.997292 166.474503,100.578888 166.340836,98.210022 
	C160.679932,98.210022 155.435440,98.157204 150.192688,98.229942 
	C147.073822,98.273216 147.845963,99.845207 149.066803,102.484276 
	C147.898163,106.679802 151.476196,111.981544 146.103989,115.197426 
	C147.059052,116.044762 148.014130,116.892097 149.768509,117.914886 
	C150.853912,117.874733 151.939331,117.834579 153.673431,117.882172 
	C154.104767,117.822495 154.536118,117.762817 155.873337,117.917984 
	C158.329605,117.949532 160.793320,117.873695 163.240051,118.043144 
	C165.641052,118.209435 166.759888,117.528252 166.940033,114.860489 
	C167.360992,108.625763 167.045120,108.242401 161.031311,109.159828 
	C160.976181,108.434380 160.921036,107.708939 161.028702,106.512680 
M98.556313,112.640495 
	C98.556313,112.640495 98.526306,112.222542 98.790894,111.521721 
	C98.785667,110.024223 98.780449,108.526726 98.955711,106.351456 
	C98.899307,105.891197 98.842903,105.430931 98.913437,104.225716 
	C99.653458,102.154556 100.393471,100.083397 101.477524,97.049332 
	C97.920509,97.426453 95.108177,97.724617 91.288445,98.092049 
	C87.764206,97.763168 84.243324,97.319931 80.712463,97.215950 
	C80.111443,97.198242 78.779663,98.900742 78.955711,99.355789 
	C80.059456,102.208786 81.494827,104.933487 82.108383,108.293716 
	C82.105217,109.193092 82.102058,110.092461 81.931137,111.666321 
	C82.015472,112.115273 82.099808,112.564224 82.177147,113.692001 
	C82.736099,114.472832 83.200508,115.348106 83.870094,116.018425 
	C87.039551,119.191422 90.978508,113.311882 94.269218,116.781158 
	C94.374329,116.891975 95.953949,115.604172 97.457672,115.052658 
	C97.621155,114.697235 97.784637,114.341812 98.229736,113.483925 
	C98.231071,113.291939 98.232399,113.099945 98.556313,112.640495 
M178.954376,113.173164 
	C179.240509,108.633537 179.526642,104.093910 179.795898,99.821793 
	C177.800827,99.821793 174.939240,99.821793 172.077667,99.821793 
	C172.036957,100.305794 171.996246,100.789795 171.955551,101.273804 
	C172.921921,101.621613 173.888290,101.969429 174.290924,102.114342 
	C174.290924,106.736763 174.290924,110.934113 173.886276,115.687431 
	C173.393188,115.920959 172.900116,116.154488 172.407028,116.388016 
	C172.691269,116.849533 172.975525,117.311050 173.259766,117.772575 
	C175.109787,116.546768 176.959824,115.320961 178.954376,113.173164 
M199.110443,113.754189 
	C199.018280,115.843674 199.457428,117.257713 202.593475,116.565575 
	C203.665924,116.639435 204.738388,116.713295 206.149902,116.810509 
	C206.149902,110.477837 206.149902,104.504929 206.149902,99.971977 
	C204.388657,99.407852 203.117020,98.776169 201.827667,98.737694 
	C201.484619,98.727463 200.681396,100.586617 200.794113,101.500565 
	C201.084457,103.854416 201.769257,106.159615 202.296448,108.484245 
	C201.919266,108.589264 201.542068,108.694275 201.164886,108.799286 
	C200.451035,107.844467 199.737167,106.889648 198.859940,105.315193 
	C198.305893,104.673317 197.751831,104.031448 197.094025,102.743019 
	C193.510910,98.339874 192.326569,97.931252 188.272614,100.322372 
	C188.272614,105.110947 188.272614,109.899513 188.272614,114.948311 
	C189.281113,115.177917 190.573364,115.472130 192.337570,115.873795 
	C192.337570,112.712776 192.337570,110.014351 192.337570,107.467934 
	C194.694244,109.399750 196.858521,111.173859 198.902634,112.978043 
	C198.902634,112.978043 198.904541,113.101898 199.110443,113.754189 
M179.912598,115.527122 
	C179.775253,115.986794 179.637909,116.446465 179.500549,116.906136 
	C180.054413,116.796646 180.608292,116.687157 181.162155,116.577667 
	C180.905716,116.072945 180.649277,115.568222 179.912598,115.527122 
z"/>
<path fill="#444444" opacity="1.000000" stroke="none" 
	d="
M96.846191,114.968369 
	C95.953949,115.604172 94.374329,116.891975 94.269218,116.781158 
	C90.978508,113.311882 87.039551,119.191422 83.870094,116.018425 
	C83.200508,115.348106 82.736099,114.472832 82.539085,113.347572 
	C84.518250,112.687187 86.135483,112.371231 88.078934,112.414597 
	C89.859985,113.216591 92.268593,114.400391 92.601814,113.971550 
	C93.927666,112.265251 95.759438,109.691162 95.261177,108.116417 
	C94.463097,105.594063 97.139076,101.222778 92.180092,100.300049 
	C92.295868,99.387337 92.295853,98.705063 92.295837,98.022789 
	C95.108177,97.724617 97.920509,97.426453 101.477524,97.049332 
	C100.393471,100.083397 99.653458,102.154556 98.553040,104.596710 
	C97.674629,105.186127 97.156609,105.404549 96.638580,105.622971 
	C97.350792,106.091721 98.063011,106.560478 98.775223,107.029228 
	C98.780449,108.526726 98.785667,110.024223 98.260818,111.795357 
	C96.645058,112.763428 95.559364,113.457855 94.473671,114.152298 
	C95.264511,114.424324 96.055351,114.696350 96.846191,114.968369 
z"/>
<path fill="#4F4F4F" opacity="1.000000" stroke="none" 
	d="
M149.071503,101.484055 
	C147.845963,99.845207 147.073822,98.273216 150.192688,98.229942 
	C155.435440,98.157204 160.679932,98.210022 166.340836,98.210022 
	C166.474503,100.578888 166.610947,102.997292 166.781647,106.022606 
	C165.040146,106.022606 163.455826,106.022606 161.104279,105.926117 
	C159.202423,105.862999 158.067780,105.896370 157.057770,105.610374 
	C157.417252,104.213387 157.652100,103.135765 158.132568,101.903030 
	C157.952957,101.181870 157.527756,100.615829 157.047333,99.723755 
	C154.142776,99.299278 150.709152,96.982491 149.071503,101.484055 
z"/>
<path fill="#646464" opacity="1.000000" stroke="none" 
	d="
M149.069153,101.984161 
	C150.709152,96.982491 154.142776,99.299278 156.894287,99.917786 
	C156.571442,100.688057 156.300385,100.869568 155.756897,101.113602 
	C155.365082,101.546616 155.199692,101.848396 155.024200,102.470490 
	C154.944641,103.209511 154.875183,103.628227 154.561356,104.047028 
	C153.880524,105.033920 153.444046,106.020721 153.144012,107.280914 
	C153.596161,107.812057 153.911850,108.069817 154.207001,108.574089 
	C154.424301,109.197617 154.662170,109.574623 154.927429,110.350845 
	C155.628677,111.891396 156.302536,113.032730 156.835480,114.435745 
	C156.118866,115.699333 155.543152,116.701233 154.967453,117.703133 
	C154.536118,117.762817 154.104767,117.822495 153.345245,117.490387 
	C153.218185,115.888977 153.419296,114.679352 153.620422,113.469734 
	C153.163559,113.224190 152.706696,112.978653 152.249832,112.733109 
	C151.156296,114.401886 150.062744,116.070656 148.969193,117.739433 
	C148.014130,116.892097 147.059052,116.044762 146.103989,115.197426 
	C151.476196,111.981544 147.898163,106.679802 149.069153,101.984161 
z"/>
<path fill="#4F4F4F" opacity="1.000000" stroke="none" 
	d="
M199.023315,105.934822 
	C199.737167,106.889648 200.451035,107.844467 201.164886,108.799286 
	C201.542068,108.694275 201.919266,108.589264 202.296448,108.484245 
	C201.769257,106.159615 201.084457,103.854416 200.794113,101.500565 
	C200.681396,100.586617 201.484619,98.727463 201.827667,98.737694 
	C203.117020,98.776169 204.388657,99.407852 206.149902,99.971977 
	C206.149902,104.504929 206.149902,110.477837 206.149902,116.810509 
	C204.738388,116.713295 203.665924,116.639435 202.418503,116.049149 
	C202.429169,115.047577 202.614807,114.562439 202.800446,114.077293 
	C201.501816,113.752159 200.203171,113.427032 198.904541,113.101898 
	C198.904541,113.101898 198.902634,112.978043 198.957703,112.525558 
	C199.016281,110.026985 199.019806,107.980904 199.023315,105.934822 
M203.501236,112.665947 
	C203.501236,112.665947 203.608505,112.453384 203.608505,112.453384 
	C203.608505,112.453384 203.393631,112.492012 203.501236,112.665947 
z"/>
<path fill="#4B4B4B" opacity="1.000000" stroke="none" 
	d="
M198.941635,105.625008 
	C199.019806,107.980904 199.016281,110.026985 199.017776,112.510513 
	C196.858521,111.173859 194.694244,109.399750 192.337570,107.467934 
	C192.337570,110.014351 192.337570,112.712776 192.337570,115.873795 
	C190.573364,115.472130 189.281113,115.177917 188.272614,114.948311 
	C188.272614,109.899513 188.272614,105.110947 188.606888,100.506775 
	C189.457275,105.017357 193.258484,106.259659 197.197784,103.389580 
	C197.751831,104.031448 198.305893,104.673317 198.941635,105.625008 
z"/>
<path fill="#646464" opacity="1.000000" stroke="none" 
	d="
M174.290924,115.131462 
	C174.290924,110.934113 174.290924,106.736763 174.290924,102.114342 
	C173.888290,101.969429 172.921921,101.621613 171.955551,101.273804 
	C171.996246,100.789795 172.036957,100.305794 172.077667,99.821793 
	C174.939240,99.821793 177.800827,99.821793 179.795898,99.821793 
	C179.526642,104.093910 179.240509,108.633537 178.546371,113.658737 
	C176.855881,114.473358 175.573410,114.802406 174.290924,115.131462 
z"/>
<path fill="#CCCCCC" opacity="1.000000" stroke="none" 
	d="
M54.704475,102.072578 
	C53.541691,101.040298 52.378902,100.008018 51.216118,98.975746 
	C52.565010,98.329506 53.898682,97.184196 55.266010,97.142487 
	C57.984821,97.059563 60.722164,97.584099 63.828003,98.407417 
	C65.112236,101.327553 66.020309,103.697906 66.899254,106.398972 
	C66.857941,107.166862 66.845764,107.604034 66.482025,108.049644 
	C64.573563,107.704376 63.016659,107.350662 61.119362,106.963608 
	C60.553375,106.952148 60.327774,106.974045 60.124939,106.660988 
	C60.094204,105.885239 60.040710,105.444450 60.060448,104.642838 
	C61.008865,102.655472 61.884048,101.028923 62.914692,99.113457 
	C61.700897,99.347801 60.777843,99.526009 59.463623,99.635086 
	C58.033943,99.745193 56.995434,99.924446 55.625179,100.152328 
	C55.097115,100.824829 54.900795,101.448708 54.704475,102.072578 
z"/>
<path fill="#818181" opacity="1.000000" stroke="none" 
	d="
M91.792145,98.057419 
	C92.295853,98.705063 92.295868,99.387337 91.789963,100.102806 
	C89.824623,101.756531 88.365189,103.377060 86.584167,105.058472 
	C85.827438,105.151443 85.392288,105.183533 84.667603,105.166733 
	C83.858871,105.978775 83.339668,106.839699 82.820480,107.700623 
	C81.494827,104.933487 80.059456,102.208786 78.955711,99.355789 
	C78.779663,98.900742 80.111443,97.198242 80.712463,97.215950 
	C84.243324,97.319931 87.764206,97.763168 91.792145,98.057419 
z"/>
<path fill="#747474" opacity="1.000000" stroke="none" 
	d="
M155.420395,117.810562 
	C155.543152,116.701233 156.118866,115.699333 157.267151,114.392372 
	C159.149796,113.666878 160.459854,113.246445 161.796265,112.634720 
	C161.501175,112.418915 161.179733,112.394394 160.823486,112.267731 
	C160.788696,112.165581 160.976898,112.059975 160.999176,111.697296 
	C161.042862,110.851196 161.064240,110.367767 161.085617,109.884338 
	C167.045120,108.242401 167.360992,108.625763 166.940033,114.860489 
	C166.759888,117.528252 165.641052,118.209435 163.240051,118.043144 
	C160.793320,117.873695 158.329605,117.949532 155.420395,117.810562 
z"/>
<path fill="#CCCCCC" opacity="1.000000" stroke="none" 
	d="
M105.035416,101.055496 
	C107.388359,95.905510 112.594711,94.797142 116.250809,99.239601 
	C116.583572,100.033821 116.692780,100.303917 116.829697,100.564476 
	C116.857407,100.554939 116.805099,100.572922 116.678696,100.918831 
	C116.959892,101.854362 117.367485,102.443993 117.850838,103.361320 
	C117.940994,104.137230 117.955391,104.585426 117.983627,105.007736 
	C117.997459,104.981842 118.054710,104.968788 117.655304,105.021515 
	C116.189087,104.974571 115.122292,104.874893 113.812119,104.556274 
	C112.707672,104.271263 111.846588,104.205177 110.774216,103.984879 
	C110.325806,103.575073 110.088676,103.319481 109.795929,102.743912 
	C109.060074,102.127121 108.379837,101.830315 107.487122,101.444748 
	C106.824677,101.277519 106.374710,101.199059 105.704369,101.077454 
	C105.484001,101.034325 105.035416,101.055496 105.035416,101.055496 
z"/>
<path fill="#646464" opacity="1.000000" stroke="none" 
	d="
M66.833580,108.041206 
	C66.845764,107.604034 66.857941,107.166862 67.209915,106.189178 
	C68.182472,103.758850 68.815247,101.869034 69.740761,100.022934 
	C70.994766,99.711037 71.956039,99.355438 72.917305,98.999840 
	C73.853966,98.999840 74.790627,98.999840 74.657570,98.999840 
	C74.013023,102.300552 73.446281,105.202797 72.411530,108.527847 
	C70.911987,109.405487 69.880463,109.860321 68.513191,110.233101 
	C67.729485,109.447769 67.281532,108.744484 66.833580,108.041206 
z"/>
<path fill="#E4E4E4" opacity="1.000000" stroke="none" 
	d="
M140.981369,115.324661 
	C139.382080,120.603035 136.782486,116.616272 134.091248,115.645554 
	C132.109070,113.193092 130.584488,111.114243 129.032806,109.041122 
	C129.005737,109.046844 129.033234,109.093285 129.270203,109.082817 
	C129.507156,109.072350 129.980652,109.040627 130.302612,109.154129 
	C131.066574,109.375404 131.508606,109.483185 132.110718,109.740982 
	C132.270798,109.890999 132.699844,109.982559 132.699844,109.982559 
	C132.699844,109.982559 133.118118,109.850273 133.428955,109.899399 
	C134.156906,109.975761 134.574005,110.002998 135.147446,110.287254 
	C136.026566,110.866364 136.749374,111.188454 137.427490,111.827103 
	C137.953049,112.308342 138.523270,112.473030 139.285706,112.731972 
	C139.477921,112.826233 139.878189,112.674210 139.618042,112.940857 
	C139.899048,113.913223 140.440216,114.618942 140.981369,115.324661 
z"/>
<path fill="#646464" opacity="1.000000" stroke="none" 
	d="
M129.059891,109.035393 
	C130.584488,111.114243 132.109070,113.193092 133.729858,115.595856 
	C131.137482,116.265282 128.448914,116.610794 124.625725,117.102127 
	C125.208931,114.107170 125.690781,111.632729 126.911392,109.093445 
	C128.120071,109.030869 128.589981,109.033127 129.059891,109.035393 
z"/>
<path fill="#E4E4E4" opacity="1.000000" stroke="none" 
	d="
M66.482025,108.049644 
	C67.281532,108.744484 67.729485,109.447769 68.460419,110.479607 
	C68.742264,111.144691 68.741127,111.481209 68.397560,111.937447 
	C66.731796,114.023079 65.408463,115.989006 64.085129,117.954926 
	C63.826759,117.925987 63.568386,117.897041 62.882950,117.662476 
	C62.455887,117.456856 62.540546,117.196060 62.785492,116.892654 
	C62.374310,115.713593 61.718189,114.837952 60.955746,113.712723 
	C60.701611,112.945572 60.553795,112.428009 60.438976,111.599617 
	C60.460621,110.872330 60.449268,110.455879 60.628059,109.775642 
	C61.032055,108.673561 61.245903,107.835258 61.459755,106.996956 
	C63.016659,107.350662 64.573563,107.704376 66.482025,108.049644 
z"/>
<path fill="#444444" opacity="1.000000" stroke="none" 
	d="
M121.680809,113.087738 
	C118.129692,118.269394 116.501411,118.756126 109.138916,115.930046 
	C108.674774,114.058159 108.293938,113.068130 108.404251,112.178459 
	C113.746704,115.108124 115.436287,114.771248 117.090027,110.839600 
	C117.613136,111.015816 117.831154,111.058205 118.149078,111.318893 
	C118.458984,111.794342 118.723190,111.969963 119.282486,112.344032 
	C120.242516,112.778587 120.961662,112.933167 121.680809,113.087738 
z"/>
<path fill="#646464" opacity="1.000000" stroke="none" 
	d="
M64.537292,117.958389 
	C65.408463,115.989006 66.731796,114.023079 68.709717,112.144882 
	C70.623894,112.798683 71.883492,113.364754 73.143089,113.930817 
	C73.834503,114.704124 74.525917,115.477432 75.217331,116.250732 
	C74.568199,116.782104 73.950493,117.720329 73.264404,117.773323 
	C70.517624,117.985451 67.749611,117.922844 64.537292,117.958389 
z"/>
<path fill="#747474" opacity="1.000000" stroke="none" 
	d="
M197.145905,103.066299 
	C193.258484,106.259659 189.457275,105.017357 188.967468,100.319725 
	C192.326569,97.931252 193.510910,98.339874 197.145905,103.066299 
z"/>
<path fill="#444444" opacity="1.000000" stroke="none" 
	d="
M136.959244,97.454857 
	C138.399567,97.454857 139.839890,97.454857 142.080215,97.454857 
	C141.952820,99.870384 141.820908,102.371712 141.015366,104.971786 
	C139.881210,104.995773 139.420715,104.921021 138.991577,104.662903 
	C139.022949,104.479530 139.063553,104.109680 139.291428,103.889389 
	C139.708633,102.860580 139.897980,102.052071 140.155334,101.005348 
	C140.223343,100.767136 140.289902,100.276161 140.445358,100.136124 
	C140.550873,99.769943 140.500916,99.543785 140.450974,99.317642 
	C140.227066,99.465553 140.003143,99.613457 139.450043,99.799988 
	C138.677246,99.868004 138.233627,99.897385 137.625427,99.787148 
	C137.257233,99.438156 137.099640,99.198502 136.998505,98.682480 
	C136.944595,98.111626 136.928024,97.784447 136.959244,97.454857 
z"/>
<path fill="#4F4F4F" opacity="1.000000" stroke="none" 
	d="
M139.063553,104.109680 
	C139.063553,104.109680 139.022949,104.479530 139.016724,105.002121 
	C139.639923,105.746269 140.269379,105.967834 140.898819,106.189400 
	C141.261276,106.622665 141.623718,107.055923 141.707031,107.785660 
	C141.427872,108.082130 141.039032,107.991264 140.715820,108.100662 
	C139.580292,109.145035 138.767975,110.080002 137.823807,111.128159 
	C137.691971,111.241348 137.472168,111.510544 137.472168,111.510544 
	C136.749374,111.188454 136.026566,110.866364 135.215240,110.049835 
	C135.068008,109.018456 135.009293,108.481506 134.972260,107.705399 
	C134.993942,107.466225 135.006699,106.986107 135.008636,106.595963 
	C135.029892,105.685425 135.049194,105.165024 135.448334,104.679138 
	C136.711197,104.480537 137.594193,104.247414 138.623993,104.036987 
	C138.770767,104.059677 139.063553,104.109680 139.063553,104.109680 
z"/>
<path fill="#818181" opacity="1.000000" stroke="none" 
	d="
M60.405979,111.910446 
	C60.553795,112.428009 60.701611,112.945572 60.695869,113.878006 
	C61.160229,115.295212 61.778141,116.297554 62.231583,117.435547 
	C61.794315,117.655930 61.515202,117.693085 61.229771,117.682655 
	C59.761608,117.775734 58.293449,117.868813 56.369209,117.526566 
	C55.974884,116.152344 56.036640,115.213448 56.272289,114.044678 
	C56.547371,113.651436 56.648560,113.488075 57.047012,113.259125 
	C58.364845,112.765846 59.385414,112.338142 60.405979,111.910446 
z"/>
<path fill="#4F4F4F" opacity="1.000000" stroke="none" 
	d="
M109.851555,103.063889 
	C110.088676,103.319481 110.325806,103.575073 110.772491,104.251129 
	C110.970528,105.026848 110.959007,105.382103 110.613686,105.847778 
	C109.810501,106.690788 109.341110,107.423386 108.521095,108.245972 
	C107.461281,108.203033 106.752090,108.070107 106.042892,107.937180 
	C105.634377,105.907135 105.225868,103.877083 104.926384,101.451263 
	C105.035416,101.055496 105.484001,101.034325 105.765213,101.375992 
	C106.683800,102.115906 107.321182,102.514153 108.274567,102.934334 
	C109.010895,102.992142 109.431229,103.028015 109.851555,103.063889 
z"/>
<path fill="#4F4F4F" opacity="1.000000" stroke="none" 
	d="
M84.957153,105.215630 
	C85.392288,105.183533 85.827438,105.151443 86.728378,105.431229 
	C87.380356,107.847168 87.566528,109.951225 87.752708,112.055275 
	C86.135483,112.371231 84.518250,112.687187 82.542587,113.008163 
	C82.099808,112.564224 82.015472,112.115273 82.375664,111.276688 
	C83.532509,108.996574 84.244827,107.106102 84.957153,105.215630 
z"/>
<path fill="#444444" opacity="1.000000" stroke="none" 
	d="
M127.049736,106.996277 
	C127.036263,106.016182 126.991600,105.035194 127.019913,104.056305 
	C127.039902,103.365196 127.158836,102.676933 127.234009,101.983582 
	C127.663155,101.794632 128.476761,101.436417 129.630615,101.015717 
	C129.970856,100.953239 129.941956,100.950584 130.058258,101.236938 
	C130.485947,102.254768 130.797318,102.986244 131.054901,103.977936 
	C130.784821,104.683006 130.568542,105.127853 129.933990,105.662720 
	C129.243439,105.837723 128.971161,105.922707 128.502472,106.100723 
	C128.068466,106.383621 127.907722,106.624794 127.630890,106.942810 
	C127.437958,106.968338 127.049736,106.996277 127.049736,106.996277 
z"/>
<path fill="#393939" opacity="1.000000" stroke="none" 
	d="
M59.854790,99.704224 
	C60.777843,99.526009 61.700897,99.347801 62.914692,99.113457 
	C61.884048,101.028923 61.008865,102.655472 59.769905,104.759735 
	C58.626461,105.504166 57.846786,105.770882 57.044136,105.683197 
	C56.370174,104.549896 55.719196,103.770996 55.068214,102.992104 
	C55.068214,102.992104 54.900520,102.526733 54.802498,102.299652 
	C54.900795,101.448708 55.097115,100.824829 55.702091,100.485275 
	C58.177601,103.292114 59.074829,101.704224 59.854790,99.704224 
z"/>
<path fill="#393939" opacity="1.000000" stroke="none" 
	d="
M69.448021,99.979225 
	C68.815247,101.869034 68.182472,103.758850 67.239044,105.858459 
	C66.020309,103.697906 65.112236,101.327553 64.228081,98.569275 
	C65.902382,98.077789 67.552757,97.974228 69.537323,98.329788 
	C69.730339,99.185684 69.589180,99.582458 69.448021,99.979225 
z"/>
<path fill="#747474" opacity="1.000000" stroke="none" 
	d="
M149.368851,117.827164 
	C150.062744,116.070656 151.156296,114.401886 152.249832,112.733109 
	C152.706696,112.978653 153.163559,113.224190 153.620422,113.469734 
	C153.419296,114.679352 153.218185,115.888977 153.020905,117.446503 
	C151.939331,117.834579 150.853912,117.874733 149.368851,117.827164 
z"/>
<path fill="#787878" opacity="1.000000" stroke="none" 
	d="
M73.074814,113.518326 
	C71.883492,113.364754 70.623894,112.798683 69.052139,112.025177 
	C68.741127,111.481209 68.742264,111.144691 68.796173,110.561661 
	C69.880463,109.860321 70.911987,109.405487 72.309525,108.950058 
	C72.785866,110.334915 72.896194,111.720375 73.074814,113.518326 
z"/>
<path fill="#787878" opacity="1.000000" stroke="none" 
	d="
M107.913094,112.078094 
	C108.293938,113.068130 108.674774,114.058159 108.987488,115.581299 
	C108.098328,116.188545 107.253418,116.415283 106.463280,116.291756 
	C105.746155,116.179634 105.088654,115.686195 104.884796,115.101372 
	C105.913582,114.224991 106.462433,113.608101 107.257088,112.707031 
	C107.667015,112.233620 107.831139,112.044388 107.972206,111.922340 
	C107.949150,111.989517 107.913094,112.078094 107.913094,112.078094 
z"/>
<path fill="#646464" opacity="1.000000" stroke="none" 
	d="
M56.098392,114.274551 
	C56.036640,115.213448 55.974884,116.152344 55.932838,117.444702 
	C54.634209,117.448555 53.315876,117.098946 51.997543,116.749336 
	C52.580864,115.822121 53.164181,114.894905 54.526798,114.020569 
	C55.570198,114.140480 55.834297,114.207512 56.098392,114.274551 
z"/>
<path fill="#2D2D2D" opacity="1.000000" stroke="none" 
	d="
M57.067116,106.037598 
	C57.846786,105.770882 58.626461,105.504166 59.696678,105.120544 
	C60.040710,105.444450 60.094204,105.885239 59.725761,106.779327 
	C58.802372,107.875740 58.300919,108.518860 57.735779,109.235497 
	C57.469425,109.490227 57.408756,109.704323 57.044090,109.791901 
	C56.294559,109.719452 55.991016,109.806381 55.552475,109.902893 
	C55.417473,109.912476 55.153690,109.973175 55.153690,109.973175 
	C55.074413,109.228760 54.995132,108.484337 55.245972,107.362137 
	C55.576088,106.984352 56.051163,106.948135 56.268745,106.857529 
	C56.753925,106.582756 56.947517,106.339645 57.067116,106.037598 
z"/>
<path fill="#4B4B4B" opacity="1.000000" stroke="none" 
	d="
M119.970810,106.060104 
	C120.353691,106.515594 120.736572,106.971085 120.816818,107.775650 
	C119.283760,109.010315 118.053337,109.895912 116.520737,110.836395 
	C115.861748,110.710953 115.504929,110.530609 115.088058,109.931442 
	C115.024101,108.952843 115.020203,108.393074 115.159790,107.603104 
	C115.852852,106.921478 116.402428,106.470047 117.272476,105.996536 
	C117.806274,105.955589 118.019592,105.936699 118.523941,105.927101 
	C119.200256,105.977623 119.585533,106.018867 119.970810,106.060104 
z"/>
<path fill="#4B4B4B" opacity="1.000000" stroke="none" 
	d="
M129.964859,100.966362 
	C129.518387,100.017502 129.077927,99.055511 129.012604,98.912849 
	C128.706329,98.974220 129.809265,98.753204 131.326172,98.259262 
	C132.162476,98.645592 132.584839,99.304848 132.718109,100.136124 
	C131.600006,100.522285 130.770981,100.736435 129.941956,100.950577 
	C129.941956,100.950584 129.970856,100.953239 129.964859,100.966362 
z"/>
<path fill="#444444" opacity="1.000000" stroke="none" 
	d="
M84.667610,105.166733 
	C84.244827,107.106102 83.532509,108.996574 82.459541,110.939438 
	C82.102058,110.092461 82.105217,109.193092 82.464432,107.997169 
	C83.339668,106.839699 83.858871,105.978775 84.667610,105.166733 
z"/>
<path fill="#969696" opacity="1.000000" stroke="none" 
	d="
M199.007492,113.428040 
	C200.203171,113.427032 201.501816,113.752159 202.800446,114.077293 
	C202.614807,114.562439 202.429169,115.047577 202.114624,115.774315 
	C199.457428,117.257713 199.018280,115.843674 199.007492,113.428040 
z"/>
<path fill="#595959" opacity="1.000000" stroke="none" 
	d="
M117.775078,103.033615 
	C117.367485,102.443993 116.959892,101.854362 117.024124,101.048157 
	C118.010300,100.421486 118.524651,100.011398 118.995361,99.479385 
	C118.951729,99.357452 118.979935,99.099968 118.979935,99.099968 
	C119.753036,100.116814 120.526138,101.133652 120.799240,102.536819 
	C119.457840,102.959961 118.616463,102.996788 117.775078,103.033615 
z"/>
<path fill="#2D2D2D" opacity="1.000000" stroke="none" 
	d="
M133.007187,99.964096 
	C132.584839,99.304848 132.162476,98.645592 131.443512,97.979477 
	C132.835678,97.679504 134.524460,97.386383 136.586243,97.274063 
	C136.928024,97.784447 136.944595,98.111626 136.713013,98.867867 
	C136.259399,99.712616 136.101715,100.125885 135.591522,100.407043 
	C134.495087,100.171326 133.751129,100.067711 133.007187,99.964096 
z"/>
<path fill="#101010" opacity="1.000000" stroke="none" 
	d="
M174.088593,115.409447 
	C175.573410,114.802406 176.855881,114.473358 178.474106,114.119736 
	C176.959824,115.320961 175.109787,116.546768 173.259766,117.772575 
	C172.975525,117.311050 172.691269,116.849533 172.407028,116.388016 
	C172.900116,116.154488 173.393188,115.920959 174.088593,115.409447 
z"/>
<path fill="#969696" opacity="1.000000" stroke="none" 
	d="
M116.822922,110.781509 
	C118.053337,109.895912 119.283760,109.010315 120.927940,108.056892 
	C121.704765,108.011246 121.925972,108.199821 121.682671,108.739807 
	C120.878983,109.251595 120.397957,109.578369 119.767738,110.174355 
	C119.722900,110.620232 119.827255,110.796898 119.963120,110.984528 
	C119.994621,110.995491 119.968735,110.934006 119.657410,110.782730 
	C118.913788,110.787827 118.481483,110.944206 118.049179,111.100586 
	C117.831154,111.058205 117.613136,111.015816 117.123978,110.845505 
	C116.852844,110.717583 116.822922,110.781517 116.822922,110.781509 
z"/>
<path fill="#646464" opacity="1.000000" stroke="none" 
	d="
M141.309631,115.154526 
	C140.440216,114.618942 139.899048,113.913223 139.739410,112.601593 
	C140.206512,111.773972 140.292084,111.552261 140.667221,111.297562 
	C141.522903,111.143387 142.089020,111.022194 142.655151,110.901001 
	C142.316071,112.262131 141.976990,113.623260 141.309631,115.154526 
z"/>
<path fill="#595959" opacity="1.000000" stroke="none" 
	d="
M97.151932,115.010513 
	C96.055351,114.696350 95.264511,114.424324 94.473671,114.152298 
	C95.559364,113.457855 96.645058,112.763428 98.128525,112.145767 
	C98.526306,112.222542 98.556313,112.640495 98.195038,112.859009 
	C97.721809,113.164154 97.503265,113.308380 97.514183,113.328598 
	C97.638603,113.558792 97.798050,113.770065 97.948128,113.986389 
	C97.784637,114.341812 97.621155,114.697235 97.151932,115.010513 
z"/>
<path fill="#393939" opacity="1.000000" stroke="none" 
	d="
M161.058472,109.522079 
	C161.064240,110.367767 161.042862,110.851196 160.660858,111.845871 
	C159.548889,111.816360 158.797546,111.275620 158.046204,110.734879 
	C158.610748,109.993187 159.175278,109.251503 159.823730,108.191154 
	C160.227051,107.576157 160.546463,107.279823 160.865891,106.983490 
	C160.921036,107.708939 160.976181,108.434380 161.058472,109.522079 
z"/>
<path fill="#969696" opacity="1.000000" stroke="none" 
	d="
M69.740761,100.022934 
	C69.589180,99.582458 69.730339,99.185684 69.928375,98.474907 
	C70.920418,98.161346 71.855583,98.161797 72.854034,98.581039 
	C71.956039,99.355438 70.994766,99.711037 69.740761,100.022934 
z"/>
<path fill="#787878" opacity="1.000000" stroke="none" 
	d="
M104.665199,112.546227 
	C104.829445,111.374252 104.993698,110.202286 106.155396,108.954956 
	C107.573250,108.966141 107.993652,109.052681 108.240654,109.381546 
	C108.043259,110.367638 108.019257,111.111404 107.995262,111.855164 
	C107.831139,112.044388 107.667015,112.233620 106.857346,112.690216 
	C105.696266,112.820465 105.180733,112.683342 104.665199,112.546227 
z"/>
<path fill="#595959" opacity="1.000000" stroke="none" 
	d="
M119.916931,109.905151 
	C120.397957,109.578369 120.878983,109.251595 121.663971,108.972015 
	C121.991425,110.177040 122.014915,111.334869 121.859604,112.790222 
	C120.961662,112.933167 120.242516,112.778587 119.512497,112.222595 
	C119.657326,111.525459 119.813026,111.229729 119.968735,110.934006 
	C119.968735,110.934006 119.994621,110.995491 120.182083,110.919937 
	C120.218674,110.531311 120.067802,110.218239 119.916931,109.905151 
z"/>
<path fill="#101010" opacity="1.000000" stroke="none" 
	d="
M160.947296,106.748077 
	C160.546463,107.279823 160.227051,107.576157 159.509766,108.269608 
	C158.523773,108.542656 157.935654,108.418594 157.227676,107.913254 
	C157.058228,107.003120 157.008621,106.474258 156.953171,105.954285 
	C156.947327,105.963165 156.933151,105.929749 156.933151,105.929749 
	C158.067780,105.896370 159.202423,105.862999 160.751984,105.931854 
	C161.166916,106.034073 161.028702,106.512680 160.947296,106.748077 
z"/>
<path fill="#2D2D2D" opacity="1.000000" stroke="none" 
	d="
M142.704559,110.591949 
	C142.089020,111.022194 141.522903,111.143387 140.513702,111.155579 
	C140.070648,111.046593 139.786469,110.750755 139.975388,110.487854 
	C140.455872,109.480392 140.747452,108.735825 141.039032,107.991264 
	C141.039032,107.991264 141.427872,108.082130 141.626312,108.060242 
	C142.134506,108.786537 142.444229,109.534721 142.704559,110.591949 
z"/>
<path fill="#2D2D2D" opacity="1.000000" stroke="none" 
	d="
M117.850838,103.361320 
	C118.616463,102.996788 119.457840,102.959961 120.719360,102.933678 
	C120.989662,103.604881 120.839844,104.265549 120.024368,104.974030 
	C118.895744,105.025772 118.432762,105.029701 117.969788,105.033630 
	C117.955391,104.585426 117.940994,104.137230 117.850838,103.361320 
z"/>
<path fill="#4B4B4B" opacity="1.000000" stroke="none" 
	d="
M57.044136,105.683197 
	C56.947517,106.339645 56.753925,106.582756 56.231071,106.573334 
	C55.671741,105.925491 55.367672,105.471245 55.063602,105.016991 
	C55.001186,104.564354 54.938774,104.111725 54.972286,103.325592 
	C55.719196,103.770996 56.370174,104.549896 57.044136,105.683197 
z"/>
<path fill="#595959" opacity="1.000000" stroke="none" 
	d="
M98.865463,106.690338 
	C98.063011,106.560478 97.350792,106.091721 96.638580,105.622971 
	C97.156609,105.404549 97.674629,105.186127 98.489578,104.969185 
	C98.842903,105.430931 98.899307,105.891197 98.865463,106.690338 
z"/>
<path fill="#444444" opacity="1.000000" stroke="none" 
	d="
M180.152710,115.295319 
	C180.649277,115.568222 180.905716,116.072945 181.162155,116.577667 
	C180.608292,116.687157 180.054413,116.796646 179.500549,116.906136 
	C179.637909,116.446465 179.775253,115.986794 180.152710,115.295319 
z"/>
<path fill="#CCCCCC" opacity="1.000000" stroke="none" 
	d="
M108.414055,109.139221 
	C107.993652,109.052681 107.573250,108.966141 106.513916,108.800278 
	C105.874985,108.720940 105.918198,108.320335 105.980545,108.128754 
	C106.752090,108.070107 107.461281,108.203033 108.549103,108.222656 
	C108.927727,108.109352 108.894890,108.043648 108.682564,108.267448 
	C108.524742,108.689934 108.579239,108.888611 108.597076,109.112572 
	C108.560432,109.137863 108.414055,109.139214 108.414055,109.139221 
z"/>
<path fill="#393939" opacity="1.000000" stroke="none" 
	d="
M104.569519,112.949051 
	C105.180733,112.683342 105.696266,112.820465 106.611542,112.974396 
	C106.462433,113.608101 105.913582,114.224991 105.049164,114.908737 
	C104.647018,114.434349 104.560432,113.893112 104.569519,112.949051 
z"/>
<path fill="#444444" opacity="1.000000" stroke="none" 
	d="
M118.794502,98.855621 
	C118.979935,99.099968 118.951729,99.357452 118.617668,99.640427 
	C117.789734,100.140282 117.295860,100.357147 116.801987,100.574020 
	C116.692780,100.303917 116.583572,100.033821 116.576836,99.338921 
	C117.322563,98.813164 117.965813,98.712219 118.794502,98.855621 
z"/>
<path fill="#2D2D2D" opacity="1.000000" stroke="none" 
	d="
M56.272289,114.044678 
	C55.834297,114.207512 55.570198,114.140480 54.903046,114.004829 
	C54.627899,113.509392 54.755814,113.082565 55.171028,112.353271 
	C55.458336,112.050797 55.823681,112.085632 56.018112,112.423264 
	C56.391605,112.948837 56.570675,113.136780 56.749744,113.324715 
	C56.648560,113.488075 56.547371,113.651436 56.272289,114.044678 
z"/>
<path fill="#393939" opacity="1.000000" stroke="none" 
	d="
M54.999004,105.347778 
	C55.367672,105.471245 55.671741,105.925491 56.013489,106.663940 
	C56.051163,106.948135 55.576088,106.984352 55.338131,106.995689 
	C55.044918,106.564201 54.989662,106.121384 54.999004,105.347778 
z"/>
<path fill="#2D2D2D" opacity="1.000000" stroke="none" 
	d="
M61.450356,117.692513 
	C61.515202,117.693085 61.794315,117.655930 62.271549,117.421188 
	C62.475986,117.271164 62.540546,117.196060 62.540546,117.196060 
	C62.540546,117.196060 62.455887,117.456856 62.500431,117.586517 
	C62.544975,117.716179 62.108971,117.644989 62.108971,117.644989 
	C62.108971,117.644989 61.670937,117.702370 61.450356,117.692513 
z"/>
<path fill="#4B4B4B" opacity="1.000000" stroke="none" 
	d="
M55.823681,112.085632 
	C55.823681,112.085632 55.458336,112.050797 55.275551,112.034660 
	C55.039902,111.558876 54.987038,111.099220 55.043930,110.306374 
	C55.153690,109.973175 55.417473,109.912476 55.645683,110.232208 
	C55.958664,110.998276 56.043434,111.444603 56.052826,111.940781 
	C55.977448,111.990631 55.823681,112.085632 55.823681,112.085632 
z"/>
<path fill="#969696" opacity="1.000000" stroke="none" 
	d="
M129.032806,109.041122 
	C128.589981,109.033127 128.120071,109.030869 127.299240,108.995300 
	C126.993904,108.795486 127.039482,108.628967 127.407135,108.207855 
	C128.152908,108.028481 128.576599,108.103699 129.001663,108.407745 
	C129.003021,108.636589 129.033234,109.093285 129.033234,109.093285 
	C129.033234,109.093285 129.005737,109.046844 129.032806,109.041122 
z"/>
<path fill="#4F4F4F" opacity="1.000000" stroke="none" 
	d="
M129.000305,108.178909 
	C128.576599,108.103699 128.152908,108.028481 127.406082,107.948898 
	C127.000732,107.789207 126.918518,107.633873 126.943024,107.237411 
	C127.049736,106.996277 127.437958,106.968338 127.853554,106.987099 
	C128.269150,107.005859 128.714523,107.070808 128.813446,107.340752 
	C128.941666,107.800095 128.970993,107.989502 129.000305,108.178909 
z"/>
<path fill="#E4E4E4" opacity="1.000000" stroke="none" 
	d="
M140.947845,105.946075 
	C140.269379,105.967834 139.639923,105.746269 138.985352,105.185486 
	C139.420715,104.921021 139.881210,104.995773 140.687500,105.139099 
	C141.033295,105.207680 140.996887,105.702759 140.947845,105.946075 
z"/>
<path fill="#E4E4E4" opacity="1.000000" stroke="none" 
	d="
M117.983620,105.007736 
	C118.432762,105.029701 118.895744,105.025772 119.693954,105.110764 
	C120.029175,105.199684 120.012787,105.630363 119.991798,105.845238 
	C119.585533,106.018867 119.200256,105.977623 118.400162,105.704681 
	C118.008469,105.304909 118.031586,105.136848 118.054710,104.968788 
	C118.054710,104.968788 117.997459,104.981842 117.983620,105.007736 
z"/>
<path fill="#444444" opacity="1.000000" stroke="none" 
	d="
M98.088928,113.735153 
	C97.798050,113.770065 97.638603,113.558792 97.514183,113.328598 
	C97.503265,113.308380 97.721809,113.164154 98.033752,112.992737 
	C98.232399,113.099945 98.231071,113.291939 98.088928,113.735153 
z"/>
<path fill="#FFFFFF" opacity="1.000000" stroke="none" 
	d="
M88.078934,112.414597 
	C87.566528,109.951225 87.380356,107.847168 87.049973,105.370354 
	C88.365189,103.377060 89.824623,101.756531 91.674179,100.333244 
	C97.139076,101.222778 94.463097,105.594063 95.261177,108.116417 
	C95.759438,109.691162 93.927666,112.265251 92.601814,113.971550 
	C92.268593,114.400391 89.859985,113.216591 88.078934,112.414597 
z"/>
<path fill="#E4E4E4" opacity="1.000000" stroke="none" 
	d="
M154.805710,104.046936 
	C154.875183,103.628227 154.944641,103.209511 155.262604,102.361069 
	C155.679352,101.883614 155.847580,101.835884 156.323746,101.858414 
	C157.050125,101.971840 157.468536,102.014992 157.886963,102.058151 
	C157.652100,103.135765 157.417252,104.213387 157.057770,105.610382 
	C156.933151,105.929749 156.947327,105.963165 156.611572,105.928169 
	C155.785782,105.277763 155.295746,104.662354 154.805710,104.046936 
z"/>
<path fill="#444444" opacity="1.000000" stroke="none" 
	d="
M158.132568,101.903030 
	C157.468536,102.014992 157.050125,101.971840 156.317017,101.656921 
	C156.002319,101.385155 155.983322,100.982376 155.983322,100.982376 
	C156.300385,100.869568 156.571442,100.688057 156.949524,100.243813 
	C157.527756,100.615829 157.952957,101.181870 158.132568,101.903030 
z"/>
<path fill="#E4E4E4" opacity="1.000000" stroke="none" 
	d="
M157.347519,108.294525 
	C157.935654,108.418594 158.523773,108.542656 159.425873,108.588272 
	C159.175278,109.251503 158.610748,109.993187 158.046204,110.734879 
	C158.797546,111.275620 159.548889,111.816360 160.638565,112.208542 
	C160.976898,112.059975 160.788696,112.165581 161.040161,112.403687 
	C161.451065,112.703201 161.610489,112.764610 161.769913,112.826012 
	C160.459854,113.246445 159.149796,113.666878 157.408081,114.130684 
	C156.302536,113.032730 155.628677,111.891396 155.055771,110.116821 
	C155.447952,109.282829 155.739182,109.082085 156.335739,108.947044 
	C156.816345,108.733017 156.991623,108.453270 157.197296,108.225815 
	C157.227692,108.278091 157.347519,108.294525 157.347519,108.294525 
z"/>
<path fill="#444444" opacity="1.000000" stroke="none" 
	d="
M154.561356,104.047028 
	C155.295746,104.662354 155.785782,105.277763 156.617416,105.919289 
	C157.008621,106.474258 157.058228,107.003120 157.227676,107.913254 
	C157.347519,108.294525 157.227692,108.278091 156.934357,108.172523 
	C156.462540,108.068306 156.284073,108.069664 155.872910,108.062889 
	C155.640213,108.054764 155.174576,108.048790 155.018021,107.758972 
	C154.243500,107.315285 153.625534,107.161407 153.007568,107.007523 
	C153.444046,106.020721 153.880524,105.033920 154.561356,104.047028 
z"/>
<path fill="#393939" opacity="1.000000" stroke="none" 
	d="
M155.174576,108.048790 
	C155.174576,108.048790 155.640213,108.054764 155.844254,108.264359 
	C156.048294,108.473946 156.030396,108.881325 156.030396,108.881332 
	C155.739182,109.082085 155.447952,109.282829 155.028381,109.717606 
	C154.662170,109.574623 154.424301,109.197617 154.439392,108.489639 
	C154.692337,108.158676 155.174576,108.048790 155.174576,108.048790 
z"/>
<path fill="#787878" opacity="1.000000" stroke="none" 
	d="
M155.018021,107.758972 
	C155.174576,108.048790 154.692337,108.158676 154.459946,108.243118 
	C153.911850,108.069817 153.596161,107.812057 153.144012,107.280914 
	C153.625534,107.161407 154.243500,107.315285 155.018021,107.758972 
z"/>
<path fill="#4F4F4F" opacity="1.000000" stroke="none" 
	d="
M155.756897,101.113602 
	C155.983322,100.982376 156.002319,101.385155 156.009064,101.586655 
	C155.847580,101.835884 155.679352,101.883614 155.272705,102.040756 
	C155.199692,101.848396 155.365082,101.546616 155.756897,101.113602 
z"/>
<path fill="#969696" opacity="1.000000" stroke="none" 
	d="
M203.447433,112.578979 
	C203.393631,112.492012 203.608505,112.453384 203.608505,112.453384 
	C203.608505,112.453384 203.501236,112.665947 203.447433,112.578979 
z"/>
<path fill="#646464" opacity="1.000000" stroke="none" 
	d="
M59.463623,99.635086 
	C59.074829,101.704224 58.177601,103.292114 56.033840,100.436646 
	C56.995434,99.924446 58.033943,99.745193 59.463623,99.635086 
z"/>
<path fill="#969696" opacity="1.000000" stroke="none" 
	d="
M57.799469,109.161987 
	C58.300919,108.518860 58.802372,107.875740 59.702999,107.114273 
	C60.327774,106.974045 60.553375,106.952148 61.119362,106.963608 
	C61.245903,107.835258 61.032055,108.673561 60.181782,109.656616 
	C58.963394,109.588242 58.381432,109.375114 57.799469,109.161987 
z"/>
<path fill="#969696" opacity="1.000000" stroke="none" 
	d="
M161.796265,112.634720 
	C161.610489,112.764610 161.451065,112.703201 161.074951,112.505829 
	C161.179733,112.394394 161.501175,112.418915 161.796265,112.634720 
z"/>
<path fill="#595959" opacity="1.000000" stroke="none" 
	d="
M110.947479,105.737366 
	C110.959007,105.382103 110.970528,105.026848 110.983780,104.405342 
	C111.846588,104.205177 112.707672,104.271263 113.795380,104.871124 
	C114.004967,105.613411 113.987923,105.821922 113.649643,106.002815 
	C112.899315,105.957680 112.470222,105.940163 111.763863,105.899078 
	C111.306892,105.829468 111.127190,105.783417 110.947479,105.737366 
z"/>
<path fill="#818181" opacity="1.000000" stroke="none" 
	d="
M107.958557,102.912399 
	C107.321182,102.514153 106.683800,102.115906 105.985580,101.419128 
	C106.374710,101.199059 106.824677,101.277519 107.571114,101.787292 
	C107.897911,102.449867 107.928238,102.681129 107.958557,102.912399 
z"/>
<path fill="#747474" opacity="1.000000" stroke="none" 
	d="
M108.274567,102.934334 
	C107.928238,102.681129 107.897911,102.449867 107.783585,101.876053 
	C108.379837,101.830315 109.060074,102.127121 109.795929,102.743912 
	C109.431229,103.028015 109.010895,102.992142 108.274567,102.934334 
z"/>
<path fill="#444444" opacity="1.000000" stroke="none" 
	d="
M113.970886,106.030426 
	C113.987923,105.821922 114.004967,105.613411 114.038750,105.090057 
	C115.122292,104.874893 116.189087,104.974571 117.655304,105.021515 
	C118.031586,105.136848 118.008469,105.304909 118.109131,105.695396 
	C118.019592,105.936699 117.806274,105.955589 116.901093,106.001373 
	C115.463112,106.028984 114.717003,106.029709 113.970886,106.030426 
z"/>
<path fill="#969696" opacity="1.000000" stroke="none" 
	d="
M116.829697,100.564484 
	C117.295860,100.357147 117.789734,100.140282 118.661301,99.762360 
	C118.524651,100.011398 118.010300,100.421486 117.150528,100.702248 
	C116.805099,100.572922 116.857407,100.554939 116.829697,100.564484 
z"/>
<path fill="#747474" opacity="1.000000" stroke="none" 
	d="
M129.001663,108.407745 
	C128.970993,107.989502 128.941666,107.800095 128.828400,107.074356 
	C128.729263,106.361252 128.714081,106.184471 128.698883,106.007683 
	C128.971161,105.922707 129.243439,105.837723 129.948883,106.028397 
	C131.253387,106.533897 132.124725,106.763725 132.934326,107.203697 
	C132.737488,107.687317 132.531281,107.887604 131.905975,107.996613 
	C131.032196,108.332542 130.506424,108.686584 129.980652,109.040627 
	C129.980652,109.040627 129.507156,109.072350 129.270203,109.082817 
	C129.033234,109.093285 129.003021,108.636589 129.001663,108.407745 
z"/>
<path fill="#818181" opacity="1.000000" stroke="none" 
	d="
M132.253983,108.014717 
	C132.531281,107.887604 132.737488,107.687317 133.269470,107.215790 
	C134.113113,107.007202 134.559906,106.996658 135.006699,106.986115 
	C135.006699,106.986107 134.993942,107.466225 134.713928,107.814835 
	C133.995331,108.725723 133.556717,109.288002 133.118118,109.850273 
	C133.118118,109.850273 132.699844,109.982559 132.699844,109.982559 
	C132.699844,109.982559 132.270798,109.890999 132.160828,109.341698 
	C132.118591,108.533173 132.186295,108.273941 132.253983,108.014717 
z"/>
<path fill="#2D2D2D" opacity="1.000000" stroke="none" 
	d="
M133.428955,109.899399 
	C133.556717,109.288002 133.995331,108.725723 134.692261,108.054008 
	C135.009293,108.481506 135.068008,109.018456 135.058929,109.792816 
	C134.574005,110.002998 134.156906,109.975761 133.428955,109.899399 
z"/>
<path fill="#646464" opacity="1.000000" stroke="none" 
	d="
M139.093491,112.637711 
	C138.523270,112.473030 137.953049,112.308342 137.427490,111.827103 
	C137.472168,111.510544 137.691971,111.241348 138.067566,111.092514 
	C138.443161,110.943680 138.935242,110.946053 138.929947,111.373169 
	C138.980942,112.079422 139.037216,112.358566 139.093491,112.637711 
z"/>
<path fill="#595959" opacity="1.000000" stroke="none" 
	d="
M131.905975,107.996613 
	C132.186295,108.273941 132.118591,108.533173 132.000748,109.191681 
	C131.508606,109.483185 131.066574,109.375404 130.302612,109.154129 
	C130.506424,108.686584 131.032196,108.332542 131.905975,107.996613 
z"/>
<path fill="#2D2D2D" opacity="1.000000" stroke="none" 
	d="
M139.285706,112.731972 
	C139.037216,112.358566 138.980942,112.079422 139.141388,111.318207 
	C139.358139,110.836143 139.786469,110.750755 139.786469,110.750755 
	C139.786469,110.750755 140.070648,111.046593 140.224152,111.188568 
	C140.292084,111.552261 140.206512,111.773972 139.999557,112.334946 
	C139.878189,112.674210 139.477921,112.826233 139.285706,112.731972 
z"/>
<path fill="#595959" opacity="1.000000" stroke="none" 
	d="
M57.735779,109.235489 
	C58.381432,109.375114 58.963394,109.588242 59.991638,109.920395 
	C60.449268,110.455879 60.460621,110.872330 60.438976,111.599617 
	C59.385414,112.338142 58.364845,112.765846 57.047012,113.259125 
	C56.570675,113.136780 56.391605,112.948837 56.018112,112.423264 
	C55.823681,112.085632 55.977448,111.990631 56.311527,111.782928 
	C56.927097,111.033913 57.208591,110.492599 57.490086,109.951279 
	C57.408756,109.704323 57.469425,109.490227 57.735779,109.235489 
z"/>
<path fill="#747474" opacity="1.000000" stroke="none" 
	d="
M62.785492,116.892654 
	C62.540546,117.196060 62.475986,117.271164 62.436020,117.285530 
	C61.778141,116.297554 61.160229,115.295212 60.802193,114.127586 
	C61.718189,114.837952 62.374310,115.713593 62.785492,116.892654 
z"/>
<path fill="#E4E4E4" opacity="1.000000" stroke="none" 
	d="
M108.240654,109.381546 
	C108.414055,109.139214 108.560432,109.137863 108.989624,109.159836 
	C109.937149,109.138031 110.455467,109.094254 111.214828,109.334869 
	C112.686607,109.862938 113.917366,110.106598 115.148117,110.350266 
	C115.504929,110.530609 115.861748,110.710953 116.520737,110.836403 
	C116.822922,110.781517 116.852844,110.717583 116.818893,110.711670 
	C115.436287,114.771248 113.746704,115.108124 108.404251,112.178459 
	C107.913094,112.078094 107.949150,111.989517 107.972206,111.922340 
	C108.019257,111.111404 108.043259,110.367638 108.240654,109.381546 
z"/>
<path fill="#2D2D2D" opacity="1.000000" stroke="none" 
	d="
M119.657410,110.782730 
	C119.813026,111.229729 119.657326,111.525459 119.271606,111.942627 
	C118.723190,111.969963 118.458984,111.794342 118.149078,111.318893 
	C118.481483,110.944206 118.913788,110.787827 119.657410,110.782730 
z"/>
<path fill="#595959" opacity="1.000000" stroke="none" 
	d="
M135.944016,100.539154 
	C136.101715,100.125885 136.259399,99.712616 136.702591,99.113960 
	C137.099640,99.198502 137.257233,99.438156 137.815460,100.080086 
	C138.809158,100.756279 139.448242,100.999924 140.087311,101.243561 
	C139.897980,102.052071 139.708633,102.860580 139.291428,103.889389 
	C139.063553,104.109680 138.770767,104.059677 138.474884,103.756912 
	C137.433990,102.482475 136.689011,101.510818 135.944016,100.539154 
z"/>
<path fill="#787878" opacity="1.000000" stroke="none" 
	d="
M140.155334,101.005348 
	C139.448242,100.999924 138.809158,100.756279 137.980042,100.219704 
	C138.233627,99.897385 138.677246,99.868004 139.576385,99.930008 
	C140.031906,100.021393 140.289902,100.276161 140.289902,100.276161 
	C140.289902,100.276161 140.223343,100.767136 140.155334,101.005348 
z"/>
<path fill="#787878" opacity="1.000000" stroke="none" 
	d="
M139.905563,99.891373 
	C140.003143,99.613457 140.227066,99.465553 140.450974,99.317642 
	C140.500916,99.543785 140.550873,99.769943 140.445358,100.136124 
	C140.289902,100.276161 140.031906,100.021393 139.905563,99.891373 
z"/>
<path fill="#E4E4E4" opacity="1.000000" stroke="none" 
	d="
M135.591522,100.407043 
	C136.689011,101.510818 137.433990,102.482475 138.328094,103.734215 
	C137.594193,104.247414 136.711197,104.480537 135.165497,104.485474 
	C133.371445,104.077438 132.240082,103.897575 131.108704,103.717712 
	C130.797318,102.986244 130.485947,102.254768 130.058258,101.236938 
	C130.770981,100.736435 131.600006,100.522285 132.718109,100.136124 
	C133.751129,100.067711 134.495087,100.171326 135.591522,100.407043 
z"/>
<path fill="#595959" opacity="1.000000" stroke="none" 
	d="
M131.054901,103.977936 
	C132.240082,103.897575 133.371445,104.077438 134.785660,104.450958 
	C135.049194,105.165024 135.029892,105.685425 135.008636,106.595970 
	C134.559906,106.996658 134.113113,107.007202 133.331177,107.005646 
	C132.124725,106.763725 131.253387,106.533897 130.367157,105.938385 
	C130.568542,105.127853 130.784821,104.683006 131.054901,103.977936 
z"/>
<path fill="#969696" opacity="1.000000" stroke="none" 
	d="
M139.975388,110.487854 
	C139.786469,110.750755 139.358139,110.836143 139.146698,110.891098 
	C138.935242,110.946053 138.443161,110.943680 138.199402,110.979324 
	C138.767975,110.080002 139.580292,109.145035 140.715820,108.100662 
	C140.747452,108.735825 140.455872,109.480392 139.975388,110.487854 
z"/>
<path fill="#787878" opacity="1.000000" stroke="none" 
	d="
M110.613686,105.847778 
	C111.127190,105.783417 111.306892,105.829468 111.750099,106.287468 
	C112.027275,107.218369 112.040947,107.737312 111.839417,108.352280 
	C111.624222,108.448303 111.180145,108.290459 110.814438,108.149963 
	C109.930786,108.020859 109.412834,108.032257 108.894890,108.043655 
	C108.894890,108.043648 108.927727,108.109352 108.899719,108.132668 
	C109.341110,107.423386 109.810501,106.690788 110.613686,105.847778 
z"/>
<path fill="#595959" opacity="1.000000" stroke="none" 
	d="
M128.502472,106.100723 
	C128.714081,106.184471 128.729263,106.361252 128.729477,106.804413 
	C128.714523,107.070808 128.269150,107.005859 128.046478,106.961578 
	C127.907722,106.624794 128.068466,106.383621 128.502472,106.100723 
z"/>
<path fill="#818181" opacity="1.000000" stroke="none" 
	d="
M57.044090,109.791901 
	C57.208591,110.492599 56.927097,111.033913 56.386906,111.733086 
	C56.043434,111.444603 55.958664,110.998276 55.780685,110.222626 
	C55.991016,109.806381 56.294559,109.719452 57.044090,109.791901 
z"/>
<path fill="#2D2D2D" opacity="1.000000" stroke="none" 
	d="
M111.180145,108.290459 
	C111.180145,108.290459 111.624222,108.448303 112.211716,108.337730 
	C113.538239,108.095871 114.277267,107.964584 115.016304,107.833298 
	C115.020203,108.393074 115.024101,108.952843 115.088058,109.931442 
	C113.917366,110.106598 112.686607,109.862938 111.288574,109.150856 
	C111.121292,108.682442 111.180145,108.290459 111.180145,108.290459 
z"/>
<path fill="#747474" opacity="1.000000" stroke="none" 
	d="
M115.159790,107.603104 
	C114.277267,107.964584 113.538239,108.095871 112.426910,108.241707 
	C112.040947,107.737312 112.027275,107.218369 112.027367,106.311035 
	C112.470222,105.940163 112.899315,105.957680 113.649643,106.002815 
	C114.717003,106.029709 115.463112,106.028984 116.580612,106.023438 
	C116.402428,106.470047 115.852852,106.921478 115.159790,107.603104 
z"/>
<path fill="#2D2D2D" opacity="1.000000" stroke="none" 
	d="
M119.767746,110.174362 
	C120.067802,110.218239 120.218674,110.531311 120.150574,110.908981 
	C119.827255,110.796898 119.722900,110.620232 119.767746,110.174362 
z"/>
<path fill="#4F4F4F" opacity="1.000000" stroke="none" 
	d="
M110.814438,108.149963 
	C111.180145,108.290459 111.121292,108.682442 111.047546,108.866455 
	C110.455467,109.094254 109.937149,109.138031 109.026276,109.134552 
	C108.579239,108.888611 108.524742,108.689934 108.682564,108.267456 
	C109.412834,108.032257 109.930786,108.020859 110.814438,108.149963 
z"/>
<path fill="#101010" opacity="1.000000" stroke="none" 
	d="
M156.335739,108.947037 
	C156.030396,108.881325 156.048294,108.473946 156.076950,108.272476 
	C156.284073,108.069664 156.462540,108.068306 156.903946,108.120239 
	C156.991623,108.453270 156.816345,108.733017 156.335739,108.947037 
z"/>
</svg>